<svg width="48" height="48" viewBox="0 0 48 48" fill="none" xmlns="http://www.w3.org/2000/svg">
<path d="M21.3952 10.1976C23.1317 10.2575 24.509 11.6946 24.509 13.4311V14.3293V15.5269H25.7066H29.9581H30.018C30.3174 15.5269 30.6168 15.5868 30.9162 15.7066C31.1557 15.8263 31.3952 15.9461 31.6347 16.1257L31.7545 16.2455C31.994 16.485 32.1736 16.7246 32.2934 17.024C32.4132 17.3234 32.473 17.6228 32.473 17.982V22.2335V23.4311H33.6707H34.5689C36.3653 23.4311 37.8024 24.8084 37.8024 26.5449C37.8024 28.3413 36.3653 29.7784 34.6287 29.7784H33.6707H32.473V30.976V35.2275C32.473 36.6048 31.3952 37.7425 30.018 37.7425H25.2275V35.8862C25.2275 35.4671 25.1677 34.988 24.988 34.5689C24.8084 34.1497 24.5689 33.7904 24.2695 33.491C23.5509 32.7725 22.5329 32.3533 21.4551 32.3533H21.3952C20.5569 32.3533 19.7784 32.5928 19.1198 33.0719H19.0599L18.7006 33.3713C17.9222 34.0299 17.5629 34.9281 17.5629 35.8862V37.6826H12.8323C12.2335 37.6826 11.6347 37.4431 11.1557 37.024L11.0359 36.9042C10.5569 36.4251 10.3174 35.7665 10.3174 35.1078V30.3772H12.1737C13.0719 30.3772 13.9701 30.018 14.6886 29.2994C15.0479 28.9401 15.3473 28.4611 15.5269 27.982C15.7066 27.503 15.8263 26.9641 15.8263 26.4252C15.7665 24.3892 14.0898 22.6527 12.1138 22.6527H10.1976V17.8623C10.1976 17.503 10.2575 17.2036 10.3772 16.9042C10.497 16.6048 10.6766 16.3653 10.9162 16.1257C11.3952 15.6467 11.994 15.4072 12.7126 15.4072H16.9641H18.1617V14.2096V13.3713C18.1617 12.9521 18.2216 12.5329 18.4012 12.1138L18.4611 12.0539C18.6407 11.6946 18.8802 11.3952 19.1198 11.0958C19.4192 10.7964 19.7784 10.5569 20.1377 10.4371C20.497 10.2575 20.9162 10.1976 21.3952 10.1976ZM21.3353 9C20.7964 9 20.1976 9.11976 19.6587 9.2994C19.1198 9.53892 18.6407 9.83833 18.2216 10.2575C17.8024 10.6767 17.503 11.1557 17.2635 11.6946C17.0239 12.2335 16.9042 12.8323 16.9042 13.3713V14.3293H12.6527C11.6946 14.3293 10.7365 14.6886 10.0778 15.3473C9.71856 15.7066 9.47904 16.0659 9.23952 16.5449C9.11976 17.024 9 17.503 9 17.982V23.9701H11.994C13.3713 23.9701 14.509 25.1677 14.5689 26.6048C14.5689 26.9641 14.509 27.3234 14.3293 27.6826C14.2096 28.0419 13.9701 28.3413 13.7305 28.5808C13.2515 29.0599 12.6527 29.2994 12.0539 29.2994H9V35.2275C9 36.1856 9.41916 37.1437 10.0778 37.8623C10.7964 38.5808 11.6946 38.9401 12.7126 38.9401H18.6407V35.9461C18.6407 35.1677 19.0599 34.6287 19.4192 34.3293C19.9581 33.8503 20.6168 33.6108 21.3353 33.6108C21.3353 33.6108 21.3353 33.6108 21.3952 33.6108C22.1736 33.6108 22.8922 33.9102 23.3713 34.3892C23.5509 34.5689 23.7305 34.8084 23.8503 35.1078C23.9701 35.3473 24.0299 35.6467 24.0299 35.9461V39H30.018C32.0539 39 33.6707 37.3234 33.6707 35.2874V31.0359H34.6287C37.0239 31.0359 39 29.0599 39 26.6048C39 24.2096 37.0239 22.2934 34.5689 22.2934H33.6707V18.0419C33.6707 17.5629 33.6108 17.0838 33.3713 16.6048C33.1916 16.1258 32.8922 15.7665 32.5928 15.4072C32.2335 15.0479 31.8742 14.8084 31.3952 14.6287C30.976 14.4491 30.497 14.3892 30.018 14.3892C30.018 14.3892 30.018 14.3892 29.9581 14.3892H25.7066V13.491C25.7066 11.0359 23.7904 9.05988 21.3353 9C21.3952 9 21.3952 9 21.3353 9Z" fill="#70E61C"/>
</svg>
