<svg width="60" height="60" viewBox="0 0 60 60" fill="none" xmlns="http://www.w3.org/2000/svg">
<g clip-path="url(#clip0_166850_1216)">
<path d="M49.8288 25.245L30.6154 36.1892C30.2695 36.3926 29.8423 36.3926 29.4863 36.1892L10.2729 25.245C9.52025 24.8178 9.52025 23.7294 10.2729 23.2921L29.4863 12.3479C29.8322 12.1444 30.2594 12.1444 30.6154 12.3479L49.8288 23.2921C50.5814 23.7193 50.5814 24.8076 49.8288 25.245Z" fill="#9747FF"/>
<path d="M46.5028 28.9269V37.9488C46.5028 38.3557 46.2892 38.7218 45.9332 38.9252L30.6154 47.6521C30.2695 47.8556 29.8423 47.8556 29.4863 47.6521L14.1685 38.9252C13.8125 38.7218 13.5989 38.3557 13.5989 37.9488V28.9269L22.0919 33.7583L29.4863 37.9793C29.8322 38.1827 30.2594 38.1827 30.6154 37.9793L38.0098 33.7583L46.5028 28.9269Z" fill="#9747FF"/>
<path d="M55.4535 14.0363L55.9824 13.6701C56.6232 13.2226 56.5418 12.2563 55.84 11.9207L51.6291 9.91693C50.9171 9.58128 50.1136 10.1407 50.1746 10.9239L50.5815 15.5721C50.6526 16.3451 51.5375 16.7622 52.1783 16.3146L52.931 15.7959C59.6237 26.5774 57.8234 40.9391 48.4658 49.6864C39.2609 58.2912 25.072 59.3389 14.7279 52.1783C14.0363 51.7003 13.0802 51.8732 12.6021 52.5648C12.1241 53.2565 12.297 54.2126 12.9886 54.6906C18.1048 58.2302 24.0549 59.9695 29.9949 59.9695C37.4301 59.9695 44.8449 57.2436 50.5509 51.9139C60.9968 42.1393 63.0107 26.0587 55.4535 14.0363Z" fill="#9747FF"/>
<path d="M47.1131 5.30936C35.5992 -2.66487 19.8033 -1.49518 9.55076 8.0861C-1.15953 18.1047 -3.08189 34.1142 4.90252 46.34L4.16002 46.8486C3.51923 47.2961 3.6006 48.2624 4.30242 48.5981L8.5133 50.6018C9.22528 50.9374 10.0288 50.378 9.96778 49.5948L9.56094 44.9466C9.48974 44.1736 8.60484 43.7566 7.96405 44.2041L7.41481 44.5906C0.3153 33.6159 2.03424 19.2846 11.6359 10.3136C20.8408 1.70875 35.0297 0.650942 45.3738 7.82165C46.0654 8.2997 47.0215 8.12679 47.4996 7.43514C47.9776 6.7435 47.8047 5.78741 47.1131 5.30936Z" fill="#9747FF"/>
</g>
<defs>
<clipPath id="clip0_166850_1216">
<rect width="60" height="59.939" fill="white" transform="translate(0 0.0305138)"/>
</clipPath>
</defs>
</svg>
